<svg width="20" height="20" viewBox="0 0 20 20" fill="none" xmlns="http://www.w3.org/2000/svg">
<g id="icon/edit">
<path id="Shape" fill-rule="evenodd" clip-rule="evenodd" d="M19.7071 5.29289L14.7071 0.292893C14.3166 -0.0976311 13.6834 -0.0976311 13.2929 0.292893L0.292893 13.2929C0.105357 13.4804 0 13.7348 0 14V19C0 19.5523 0.447715 20 1 20H6C6.26522 20 6.51957 19.8946 6.70711 19.7071L19.7071 6.70711C20.0976 6.31658 20.0976 5.68342 19.7071 5.29289ZM2 18V14.4142L14 2.41425L17.5858 6.00003L5.58579 18H2Z" fill="#000000"/>
<mask id="mask0_318_528" style="mask-type:luminance" maskUnits="userSpaceOnUse" x="0" y="0" width="20" height="20">
<path id="Shape_2" fill-rule="evenodd" clip-rule="evenodd" d="M19.7071 5.29289L14.7071 0.292893C14.3166 -0.0976311 13.6834 -0.0976311 13.2929 0.292893L0.292893 13.2929C0.105357 13.4804 0 13.7348 0 14V19C0 19.5523 0.447715 20 1 20H6C6.26522 20 6.51957 19.8946 6.70711 19.7071L19.7071 6.70711C20.0976 6.31658 20.0976 5.68342 19.7071 5.29289ZM2 18V14.4142L14 2.41425L17.5858 6.00003L5.58579 18H2Z" fill="white"/>
</mask>
<g mask="url(#mask0_318_528)">
</g>
</g>
</svg>
