<svg width="200" height="201" viewBox="0 0 200 201" fill="none" xmlns="http://www.w3.org/2000/svg">
<g clip-path="url(#clip0_1_119)">
<path d="M135.045 198.21H23.0992L47.0916 123.072H159.037L135.045 198.21Z" fill="#073CF5"/>
<path d="M135.045 200.542H23.0993C22.3569 200.542 21.6558 200.187 21.2183 199.586C20.7765 198.984 20.6536 198.21 20.8768 197.5L44.869 122.362C45.0199 121.891 45.3165 121.48 45.716 121.189C46.1155 120.898 46.5972 120.741 47.0916 120.741H159.037C159.78 120.741 160.481 121.096 160.918 121.697C161.36 122.298 161.483 123.072 161.26 123.783L137.267 198.921C137.117 199.392 136.82 199.802 136.421 200.094C136.021 200.385 135.539 200.542 135.045 200.542ZM26.2918 195.878H133.342L155.845 125.404H48.7952L26.2918 195.878Z" fill="#4D4D4D"/>
<path d="M35.897 84.7157H131.866V148.659H35.897V84.7157Z" fill="#8FA8FF"/>
<path d="M131.866 150.991H35.897C34.6084 150.991 33.5652 149.948 33.5652 148.659V84.7157C33.5652 83.4269 34.6082 82.3839 35.897 82.3839H131.866C133.155 82.3839 134.198 83.4269 134.198 84.7157V148.659C134.198 149.947 133.155 150.991 131.866 150.991ZM38.2289 146.327H129.534V87.0475H38.2289V146.327Z" fill="#4D4D4D"/>
<path d="M197.668 60.8145L109.932 99.6267L84.0366 41.1488L171.789 2.33661L197.668 60.8145Z" fill="white"/>
<path d="M109.932 101.959C109.481 101.958 109.039 101.826 108.661 101.58C108.283 101.333 107.984 100.982 107.801 100.569L81.9052 42.0916C81.7807 41.8116 81.7126 41.5099 81.7047 41.2035C81.6969 40.8972 81.7495 40.5924 81.8595 40.3064C82.0849 39.7308 82.5285 39.2676 83.0937 39.0174L170.847 0.205532C172.012 -0.327394 173.402 0.214467 173.921 1.39389L199.799 59.8718C199.923 60.1518 199.992 60.4536 199.999 60.7599C200.007 61.0663 199.954 61.3712 199.844 61.6572C199.619 62.2326 199.175 62.6958 198.61 62.946L110.875 101.758C110.579 101.891 110.257 101.959 109.932 101.959ZM87.1153 42.3376L111.121 96.5525L194.593 59.6259L170.601 5.41069L87.1153 42.3376Z" fill="#4D4D4D"/>
<path d="M105.05 51.5875L167.017 24.1611L105.05 51.5875Z" fill="white"/>
<path d="M105.05 53.9192C104.158 53.9192 103.301 53.4 102.919 52.5303C102.395 51.3553 102.928 49.9751 104.107 49.4561L166.074 22.0297C167.24 21.5059 168.629 22.0388 169.148 23.2184C169.672 24.3935 169.139 25.7734 167.959 26.2927L105.993 53.7189C105.696 53.8513 105.375 53.9196 105.05 53.9194V53.9192Z" fill="#4D4D4D"/>
<path d="M109.495 63.957L171.453 36.5489L109.495 63.957Z" fill="white"/>
<path d="M109.495 66.2889C108.602 66.2889 107.746 65.7696 107.364 64.8998C106.84 63.7247 107.373 62.3447 108.552 61.8255L170.51 34.4176C171.68 33.8894 173.065 34.4267 173.584 35.6063C174.108 36.7812 173.575 38.1611 172.395 38.6804L110.438 66.0885C110.141 66.2208 109.82 66.2891 109.495 66.2889Z" fill="#4D4D4D"/>
<path d="M115.234 76.7729L177.191 49.3651L115.234 76.7729Z" fill="white"/>
<path d="M115.234 79.1049C114.341 79.1049 113.485 78.5857 113.102 77.7156C112.579 76.5408 113.111 75.1608 114.291 74.6416L176.248 47.2334C177.419 46.7007 178.808 47.2426 179.322 48.4222C179.846 49.5972 179.313 50.9772 178.134 51.4964L116.176 78.9044C115.88 79.0368 115.558 79.1051 115.234 79.1049Z" fill="#4D4D4D"/>
<path d="M188.832 126.224L101.088 165.027L75.2011 106.558L162.954 67.7463L188.832 126.224Z" fill="white"/>
<path d="M101.088 167.359C100.195 167.359 99.339 166.84 98.9566 165.97L73.0696 107.501C72.9451 107.221 72.8769 106.919 72.8691 106.613C72.8613 106.307 72.9139 106.002 73.0239 105.716C73.2495 105.14 73.6931 104.677 74.2583 104.427L162.012 65.6148C163.182 65.0819 164.566 65.6285 165.086 66.8035L190.963 125.281C191.088 125.561 191.156 125.863 191.164 126.169C191.172 126.476 191.119 126.781 191.009 127.067C190.784 127.642 190.34 128.105 189.775 128.355L102.031 167.159C101.734 167.291 101.413 167.359 101.088 167.359V167.359ZM78.2797 107.747L102.277 161.953L185.758 125.035L161.766 70.8203L78.2797 107.747Z" fill="#4D4D4D"/>
<path d="M96.2058 116.988L158.181 89.5891L96.2058 116.988Z" fill="white"/>
<path d="M96.2058 119.32C95.3129 119.32 94.4567 118.801 94.0743 117.931C93.9496 117.651 93.8816 117.349 93.8739 117.043C93.8662 116.737 93.9192 116.432 94.0296 116.146C94.1401 115.861 94.3059 115.6 94.5176 115.378C94.7293 115.157 94.9826 114.98 95.263 114.857L157.238 87.4574C158.405 86.9292 159.793 87.4713 160.312 88.6461C160.437 88.9259 160.505 89.2276 160.513 89.5338C160.521 89.84 160.468 90.1447 160.357 90.4304C160.247 90.7161 160.081 90.9771 159.869 91.1985C159.658 91.4199 159.404 91.5972 159.124 91.7204L97.1485 119.119C96.8518 119.252 96.5306 119.32 96.2058 119.32Z" fill="#4D4D4D"/>
<path d="M100.651 129.358L162.617 101.959L100.651 129.358Z" fill="white"/>
<path d="M100.651 131.689C99.7582 131.689 98.9018 131.17 98.5194 130.3C98.3947 130.021 98.3266 129.719 98.319 129.413C98.3113 129.106 98.3642 128.802 98.4746 128.516C98.5851 128.23 98.7509 127.969 98.9625 127.748C99.1742 127.527 99.4275 127.349 99.7079 127.226L161.674 99.8272C162.84 99.2987 164.229 99.8407 164.749 101.016C164.873 101.295 164.941 101.597 164.949 101.903C164.957 102.209 164.904 102.514 164.793 102.8C164.683 103.085 164.517 103.346 164.305 103.568C164.094 103.789 163.84 103.967 163.56 104.09L101.593 131.489C101.297 131.621 100.976 131.69 100.651 131.689Z" fill="#4D4D4D"/>
<path d="M106.389 142.173L168.356 114.775L106.389 142.173Z" fill="white"/>
<path d="M106.389 144.505C105.497 144.505 104.64 143.986 104.258 143.116C104.133 142.836 104.065 142.535 104.057 142.228C104.05 141.922 104.103 141.618 104.213 141.332C104.324 141.046 104.489 140.785 104.701 140.564C104.913 140.342 105.166 140.165 105.447 140.042L167.413 112.643C168.579 112.119 169.968 112.652 170.487 113.832C170.612 114.111 170.68 114.413 170.687 114.719C170.695 115.025 170.642 115.33 170.532 115.616C170.421 115.902 170.256 116.163 170.044 116.384C169.832 116.605 169.579 116.783 169.298 116.906L107.332 144.305C107.035 144.437 106.714 144.506 106.389 144.505Z" fill="#4D4D4D"/>
<path d="M135.045 198.21H23.0992L2.33142 133.466H63.0774L72.6689 122.28H110.26L135.045 198.21Z" fill="#073CF5"/>
<path d="M135.045 200.542H23.0993C22.6048 200.542 22.1231 200.385 21.7237 200.094C21.3242 199.802 21.0277 199.392 20.8768 198.921L0.109 134.176C-0.00147546 133.826 -0.0285412 133.455 0.0299676 133.093C0.0884764 132.731 0.230936 132.387 0.44595 132.09C0.662927 131.794 0.946732 131.552 1.27433 131.386C1.60194 131.22 1.9641 131.133 2.33144 131.133H62.0072L70.8974 120.763C71.1165 120.508 71.3883 120.303 71.6941 120.162C71.9999 120.021 72.3325 119.948 72.6691 119.948H110.26C111.271 119.948 112.164 120.599 112.478 121.556L137.263 197.486C137.495 198.196 137.372 198.975 136.93 199.581C136.714 199.878 136.431 200.12 136.103 200.287C135.775 200.454 135.413 200.541 135.045 200.542V200.542ZM24.7981 195.878H131.83L108.571 124.612H73.7391L64.8489 134.982C64.6298 135.238 64.358 135.443 64.0523 135.584C63.7465 135.724 63.414 135.797 63.0774 135.798H5.5286L24.7981 195.878V195.878Z" fill="#4D4D4D"/>
</g>
<defs>
<clipPath id="clip0_1_119">
<rect width="200" height="200.542" fill="white"/>
</clipPath>
</defs>
</svg>
