<svg width="14" height="24" viewBox="0 0 14 24" fill="none" xmlns="http://www.w3.org/2000/svg">
<path d="M9.77513 12L0.512563 2.92647C-0.170854 2.257 -0.170854 1.17157 0.512563 0.502103C1.19598 -0.167368 2.30402 -0.167368 2.98744 0.502103L13.4874 10.7878C14.1709 11.4573 14.1709 12.5427 13.4874 13.2122L2.98744 23.4979C2.30402 24.1674 1.19598 24.1674 0.512563 23.4979C-0.170854 22.8284 -0.170854 21.743 0.512563 21.0735L9.77513 12Z" fill="#073CF5"/>
<mask id="mask0_0_41" style="mask-type:luminance" maskUnits="userSpaceOnUse" x="0" y="0" width="14" height="24">
<path d="M9.77513 12L0.512563 2.92647C-0.170854 2.257 -0.170854 1.17157 0.512563 0.502103C1.19598 -0.167368 2.30402 -0.167368 2.98744 0.502103L13.4874 10.7878C14.1709 11.4573 14.1709 12.5427 13.4874 13.2122L2.98744 23.4979C2.30402 24.1674 1.19598 24.1674 0.512563 23.4979C-0.170854 22.8284 -0.170854 21.743 0.512563 21.0735L9.77513 12Z" fill="white"/>
</mask>
<g mask="url(#mask0_0_41)">
</g>
</svg>
