<svg width="150" height="28" viewBox="0 0 150 28" fill="none" xmlns="http://www.w3.org/2000/svg">
<path d="M20.8348 9.99542L20.8025 9.96339L31.9617 0H20.9638L17.6096 2.9794L16.8355 3.68421L11.2882 8.61785L10.1916 9.61098V9.64302L9.48209 10.2517V0H0V28H9.48209V20.087L10.1916 19.4462L13.8684 16.1785L14.1264 16.627L21.8991 28H32.3488L20.8348 9.99542Z" fill="#305DFF"/>
<path d="M50.0143 16.3387V20.5034C50.0143 21.4966 49.208 22.2975 48.2082 22.2975H41.2417C40.2742 22.2975 39.4679 21.4966 39.4679 20.5034V16.3387C39.4679 15.3455 40.2742 14.5446 41.2417 14.5446H48.2082C49.208 14.5446 50.0143 15.3455 50.0143 16.3387ZM55.5294 14.6728C55.5294 11.4371 52.8847 8.8421 49.6273 8.8421H39.8226C36.5652 8.8421 33.9528 11.4371 33.9528 14.6728V22.1693C33.9528 25.405 36.5652 28 39.8226 28H49.6273C52.8847 28 55.5294 25.405 55.5294 22.1693V14.6728Z" fill="#305DFF"/>
<path d="M77.7107 28V21.6567H64.0358V8.8421H57.1339V28H77.7107Z" fill="#305DFF"/>
<path d="M95.4001 16.3387V20.5034C95.4001 21.4966 94.5938 22.2975 93.594 22.2975H86.6276C85.66 22.2975 84.8537 21.4966 84.8537 20.5034V16.3387C84.8537 15.3455 85.66 14.5446 86.6276 14.5446H93.594C94.5938 14.5446 95.4001 15.3455 95.4001 16.3387ZM100.915 14.6728C100.915 11.4371 98.2706 8.8421 95.0131 8.8421H85.2085C81.9511 8.8421 79.3386 11.4371 79.3386 14.6728V22.1693C79.3386 25.405 81.9511 28 85.2085 28H95.0131C98.2706 28 100.915 25.405 100.915 22.1693V14.6728Z" fill="#305DFF"/>
<path d="M115.034 18.1648C115.034 20.119 113.453 21.7208 111.486 21.7529H108.357V14.5446H111.486C113.453 14.5767 115.034 16.1785 115.034 18.1648ZM120.807 18.4211C120.807 13.2311 116.646 9.00229 111.454 8.8421H102.52V28H111.454C116.646 27.8719 120.807 23.611 120.807 18.4211Z" fill="#305DFF"/>
<path d="M137.873 19.5744H134.551L136.228 16.2746L137.873 19.5744ZM140.615 25.0526L142.098 28H150L140.357 8.8421H132.068L122.457 28H130.326L131.81 25.0526H140.615Z" fill="#305DFF"/>
</svg>
