<svg width="15" height="15" viewBox="0 0 15 15" fill="none" xmlns="http://www.w3.org/2000/svg">
<path d="M5.41667 0.208313C6.85326 0.208313 8.23101 0.778996 9.24683 1.79482C10.2627 2.81064 10.8333 4.18839 10.8333 5.62498C10.8333 6.96665 10.3417 8.19998 9.53333 9.14998V9.14998C9.6774 9.29404 9.87279 9.37498 10.0765 9.37498H10.0875C10.2983 9.37498 10.5004 9.4587 10.6494 9.60773L13.9583 12.9166C14.3035 13.2618 14.3035 13.8215 13.9583 14.1666V14.1666C13.6132 14.5118 13.0535 14.5118 12.7083 14.1666L9.39942 10.8577C9.25039 10.7087 9.16667 10.5066 9.16667 10.2958V10.2848C9.16667 10.0811 9.08573 9.88571 8.94167 9.74165V9.74165C7.99167 10.55 6.75833 11.0416 5.41667 11.0416C3.98008 11.0416 2.60233 10.471 1.5865 9.45514C0.570683 8.43932 0 7.06157 0 5.62498C0 4.18839 0.570683 2.81064 1.5865 1.79482C2.60233 0.778996 3.98008 0.208313 5.41667 0.208313ZM5.41667 1.87498C3.33333 1.87498 1.66667 3.54165 1.66667 5.62498C1.66667 7.70831 3.33333 9.37498 5.41667 9.37498C7.5 9.37498 9.16667 7.70831 9.16667 5.62498C9.16667 3.54165 7.5 1.87498 5.41667 1.87498Z" fill="#808080"/>
</svg>
